<?xml version="1.0" encoding="UTF-8" standalone="no"?>
<svg
   xmlns:dc="http://purl.org/dc/elements/1.1/"
   xmlns:cc="http://creativecommons.org/ns#"
   xmlns:rdf="http://www.w3.org/1999/02/22-rdf-syntax-ns#"
   xmlns:svg="http://www.w3.org/2000/svg"
   xmlns="http://www.w3.org/2000/svg"
   xmlns:sodipodi="http://sodipodi.sourceforge.net/DTD/sodipodi-0.dtd"
   xmlns:inkscape="http://www.inkscape.org/namespaces/inkscape"
   width="79.371902mm"
   height="77.381325mm"
   viewBox="0 0 79.371902 77.381325"
   version="1.1"
   id="svg8"
   sodipodi:docname="logo.svg"
   inkscape:version="1.0.2 (e86c870879, 2021-01-15)">
  <sodipodi:namedview
     pagecolor="#ffffff"
     bordercolor="#666666"
     borderopacity="1"
     objecttolerance="10"
     gridtolerance="10"
     guidetolerance="10"
     inkscape:pageopacity="0"
     inkscape:pageshadow="2"
     inkscape:window-width="1920"
     inkscape:window-height="1050"
     id="namedview8"
     showgrid="false"
     inkscape:zoom="0.78093313"
     inkscape:cx="-65.616701"
     inkscape:cy="257.56797"
     inkscape:window-x="0"
     inkscape:window-y="0"
     inkscape:window-maximized="1"
     inkscape:current-layer="svg8" />
  <defs
     id="defs2" />
  <metadata
     id="metadata5">
    <rdf:RDF>
      <cc:Work
         rdf:about="">
        <dc:format>image/svg+xml</dc:format>
        <dc:type
           rdf:resource="http://purl.org/dc/dcmitype/StillImage" />
        <dc:title />
      </cc:Work>
    </rdf:RDF>
  </metadata>
  <g
     id="layer1"
     transform="translate(-30.986738,-69.887723)">
    <path
       id="path12"
       style="opacity:1;fill:#db4a32;fill-opacity:1;stroke:none;stroke-width:0.333;stroke-linecap:round;stroke-dasharray:0.333, 0.33300000000000002;stop-color:#000000"
       d="m 200.35547,264.14258 -41.50391,52.28125 -41.73633,52.09765 15,65.04688 14.70899,65.11328 60.20703,28.82813 60.07813,29.09765 60.07812,-29.09765 60.20703,-28.82813 14.70899,-65.11328 15,-65.04688 -41.73633,-52.09765 -41.50391,-52.28125 -66.7539,0.14844 z m 3.29687,6.84375 63.45704,0.14062 63.45703,-0.14062 39.45507,49.70117 39.67579,49.52539 -14.25782,61.83399 -13.98242,61.89843 -57.23633,27.40625 -57.11132,27.66016 -57.11133,-27.66016 -57.23438,-27.40625 -13.98437,-61.89843 -14.25782,-61.83399 39.67579,-49.52539 z"
       transform="scale(0.26458333)" />
  </g>
  <path
     id="Selection-3"
     style="fill:#000000;stroke:none;stroke-width:0.0846669"
     d="m 22.353,14.276739 c 2.424725,-0.06392 4.91924,-0.661039 7.370682,-0.124907 2.386017,1.151572 3.865432,3.057468 5.910021,4.710179 1.444516,2.013579 3.071297,3.899788 3.195081,6.566728 0.42548,2.606292 -0.18425,4.877375 -0.651078,7.353919 -0.04954,0.262788 0.449527,0.783113 0.406872,1.048316 1.045039,0.454295 2.333444,0.695121 3.287298,1.498772 1.279628,0.981872 2.501381,2.012472 3.896118,2.849599 1.593854,1.176395 3.249861,2.272432 4.876173,3.383207 1.636894,1.162845 3.15021,2.556668 4.910025,3.512951 1.156574,0.567327 2.144098,1.449277 3.320186,2.01192 1.005553,0.570344 1.841804,1.359353 2.81382,1.938047 0.801877,0.695616 1.26389,0.749159 2.254803,1.481273 1.062243,1.149403 2.580077,1.88279 3.20706,3.384876 1.481538,1.529248 1.606897,5.381625 -1.168842,5.228086 -2.763632,0.498438 -4.665396,-1.792568 -6.627652,-3.31018 -1.356391,-0.990406 -2.67555,-2.017212 -3.992565,-3.047085 -2.047695,-1.343649 -3.916661,-2.925271 -5.91332,-4.333387 -2.424181,-1.925768 -4.714466,-4.005338 -7.067768,-6.009088 -1.094629,-1.213969 -2.598715,-2.036786 -3.505906,-3.401546 -0.493352,-0.658759 -1.373327,-2.220661 -2.177525,-2.744223 -0.496294,-0.323105 -0.858128,-0.172475 -1.398101,0.595887 -1.80878,2.037994 -3.420611,3.548383 -5.966793,4.518688 -2.971834,0.628126 -6.22484,0.878698 -9.004401,-0.463504 -2.468235,-1.101084 -4.369195,-1.765465 -6.063917,-4.088047 -1.964947,-2.049427 -1.927834,-4.949983 -3.327365,-7.275602 0.252142,-1.805807 -0.337565,-3.723984 0.292481,-5.46228 0.693373,-1.202827 0.839175,-2.614655 1.801298,-3.701227 0.956805,-2.283942 2.844193,-3.197002 4.659809,-4.704973 1.528573,-0.551992 3.117068,-0.92713 4.663506,-1.416399 z m 7.989827,1.172138 c -1.26419,-0.657421 -4.289054,-0.135561 -6.307375,-0.238702 -1.587253,0.09825 -3.06117,0.832512 -4.627029,1.132633 -1.770457,0.726833 -3.062133,2.266795 -4.520348,3.460774 -0.895561,1.096642 -1.659667,2.372131 -2.237786,3.654749 -0.374909,1.765489 -1.293102,3.445588 -0.903495,5.319419 0.05987,2.027135 1.404604,3.690072 1.691874,5.66871 1.091215,2.163436 2.535166,3.330555 4.670806,4.816769 2.205827,0.760646 4.33768,2.061002 6.74885,1.919149 2.300202,0.02858 4.737648,-0.397061 6.50762,-2.020032 2.310677,-1.561384 4.268039,-3.712741 5.553698,-6.175073 0.871807,-2.666533 1.499147,-5.50257 0.873011,-8.300947 -0.441906,-2.355845 -1.817561,-4.234244 -3.3133,-5.969473 -0.789893,-0.498057 -2.872336,-2.610556 -4.136526,-3.267976 z m -6.751883,0.835681 c 2.499593,-0.469819 5.231544,-0.269094 7.444227,1.041468 0.889384,0.968906 1.884553,1.852625 2.911822,2.690397 0.809522,1.388361 2.007884,2.550928 2.604693,4.055052 -0.132184,1.969482 1.44448,3.850388 0.326023,5.776662 -0.01982,1.440226 -0.546228,2.82641 -1.351934,3.96054 -1.32721,1.226407 -2.216924,2.882405 -3.748433,3.90405 -1.159662,1.042866 -2.51158,2.041711 -4.066367,2.332495 -1.554784,0.290793 -2.910007,0.225204 -4.343186,0.332567 -1.184475,-0.136653 -2.289903,-0.682486 -3.36682,-1.152865 -1.775632,-1.090553 -3.548959,-2.196577 -4.902418,-3.804554 -0.823959,-1.154719 -1.294221,-2.548394 -2.066103,-3.75754 -0.03266,-1.396163 -0.358674,-2.815376 -0.183722,-4.215777 0.01299,-2.457313 1.375816,-4.695957 3.161142,-6.298173 0.985349,-1.33912 2.037407,-2.758735 3.709442,-3.265165 1.218621,-0.734679 2.478873,-1.287581 3.871634,-1.599157 z m 1.932317,0.335519 c -2.261317,0.01846 -4.443391,0.949993 -6.327403,2.178316 -1.497649,0.665874 -2.50102,1.998514 -3.510015,3.202542 -1.092713,1.086317 -2.010325,2.48768 -2.423771,3.964928 -0.231948,1.193715 -0.258411,2.346912 -0.03764,3.539717 -0.08169,1.233238 0.05603,2.440231 0.77878,3.477947 0.893026,1.949823 2.221399,3.677909 4.149535,4.706892 1.095704,1.006149 2.485514,1.481791 3.850351,1.945191 1.834662,0.115753 3.981951,0.04337 5.530807,-0.236706 1.548854,-0.280082 2.244583,-1.182438 3.191263,-1.868914 1.534143,-1.228766 2.838337,-2.66642 4.077734,-4.183332 1.102514,-1.205867 1.433723,-2.872827 1.641572,-4.454014 0.574602,-1.294381 -0.38184,-2.569463 -0.431021,-3.901742 -0.101249,-1.352483 -0.917759,-2.536539 -1.75327,-3.555695 -0.694032,-1.223395 -1.895824,-2.014435 -2.861945,-3.020091 -1.076271,-1.005467 -2.373741,-2.056712 -3.950066,-1.834234 -0.636724,-0.04784 -1.299859,-0.143359 -1.924912,0.0392 z m -7.009317,5.571709 c 0.563078,-1.141824 2.040335,-1.499106 2.942912,-2.384784 2.169951,-0.98367 5.097944,-0.821974 7.264572,0.176578 2.012919,1.023019 4.387997,2.98717 3.739217,5.504835 -1.696004,-0.175792 -3.041418,-2.875258 -5.227603,-2.872858 -1.806216,-0.719857 -3.764469,-0.650818 -5.654634,-0.968091 -1.08499,-0.146656 -2.017937,0.606291 -3.064462,0.544329 z m 3.829478,-2.208728 c -2.623003,1.096077 0.376823,1.213719 1.458488,1.25916 1.942861,0.438295 4.096153,0.633439 5.739038,1.84848 0.866825,0.176423 2.139365,2.261234 2.46086,1.095473 -0.575865,-1.978724 -2.446231,-3.333689 -4.357049,-4.064416 -1.695288,-0.415063 -3.583128,-0.356421 -5.301337,-0.138697 z m 15.998139,14.550383 c -2.674359,1.545578 1.604749,3.146997 0.947882,0.408993 -0.355835,-0.205163 -0.531728,-0.360561 -0.947882,-0.408993 z m 1.867908,0.947967 c 0.09143,0.902962 -0.628524,1.34168 -1.395371,1.695255 -0.251916,0.116142 -0.296503,0.767942 0.485326,0.501254 0.712897,-0.247332 2.667851,-2.731349 0.910045,-2.196509 z M 60.162282,48.69583 c -1.74358,-0.989011 -3.342396,-2.086991 -5.154061,-2.989764 -3.07928,-2.231542 -5.886727,-4.830912 -9.146913,-6.812588 -0.68398,-0.543886 -1.895101,-1.379337 -2.796951,-2.045337 -0.664193,-0.490493 -1.178327,-0.710156 -1.246654,-0.684514 -0.380501,0.07016 -0.333183,0.628391 -0.8675,1.144176 -0.696056,0.671915 -1.673204,1.32478 -0.797514,1.864979 2.148136,1.981941 4.199131,4.014405 6.546943,5.744102 1.765464,1.297531 3.461346,2.736705 5.250543,3.934437 2.419292,1.817669 4.903017,3.522014 7.295705,5.373601 1.997962,1.241238 3.454213,3.340048 5.844354,4.050455 3.651811,0.618942 1.693447,-4.25216 0.0287,-5.452027 -1.360102,-1.296841 -2.890035,-2.379194 -4.370041,-3.51198 l -0.354591,-0.346915 z"
     sodipodi:nodetypes="ccccscccccccccccccccsccccccccczcccccccccccczccccccczcccccccccccccccczcccccccccccccccccccccccccscccccscsccccccccc" />
</svg>
